<?xml version="1.0" encoding="UTF-8"?>
<svg id="Layer_2" data-name="Layer 2" xmlns="http://www.w3.org/2000/svg" viewBox="0 0 165.18 165.18">
  <g id="Layer_1-2" data-name="Layer 1">
    <g>
      <path d="M165.18,82.59c0,45.61-36.98,82.59-82.59,82.59S0,128.2,0,82.59,36.98,0,82.59,0s82.59,36.98,82.59,82.59ZM148.58,82.57c0-36.44-29.54-65.98-65.98-65.98S16.61,46.13,16.61,82.57s29.54,65.98,65.98,65.98,65.98-29.54,65.98-65.98Z"/>
      <path d="M127.05,71.05h-21.5c-15.49-27.76-57.05-9.77-46.97,19.97,7.5,22.13,37.58,21.93,47.97,2.03h21.5c-8.6,33.96-49.86,47.63-76.52,24.02-28.58-25.3-15.16-72.71,22.14-79.9,23.52-4.53,48.44,10.01,53.38,33.88Z"/>
    </g>
  </g>
</svg>