<?xml version="1.0" encoding="UTF-8"?>
<svg id="Layer_2" data-name="Layer 2" xmlns="http://www.w3.org/2000/svg" viewBox="0 0 249.17 249.17">
  <g id="Layer_1-2" data-name="Layer 1">
    <g>
      <path d="M249.17,124.59c0,68.81-55.78,124.59-124.59,124.59S0,193.39,0,124.59,55.78,0,124.59,0s124.59,55.78,124.59,124.59ZM234.22,124.58c0-60.54-49.07-109.61-109.61-109.61S15,64.05,15,124.58s49.07,109.61,109.61,109.61,109.61-49.07,109.61-109.61Z"/>
      <path d="M169.15,94.12l-4,30.08h-26.24l-.48.48v87.52l-40-.48v-87.52h-18.72l-.48-.48v-29.28c.93.09,1.79-.28,2.71-.33,4.86-.31,10.28.58,15.07.03,1.33-.15,1.34-.94,1.44-2.08,1.24-13.96-3.19-29.5,5.48-41.88,11.12-15.86,28.39-13.63,45.55-13.97,5.8-.11,12.12-.93,17.93-.35.47.05,1.74.25,1.74.82v29.44l-.48.48h-20.48c-2.8,0-6.57,1.61-8.11,4.05-.32.51-1.33,3.04-1.33,3.47v19.52l.48.48h29.92Z"/>
    </g>
  </g>
</svg>