<?xml version="1.0" encoding="UTF-8"?>
<svg id="Layer_2" data-name="Layer 2" xmlns="http://www.w3.org/2000/svg" viewBox="0 0 95.23 93.19">
  <g id="Layer_1-2" data-name="Layer 1">
    <g>
      <path d="M35.68,91.89c-.66,3.08-7.19-.2-8.86-.99C-19.66,68.72-1.84-2.73,50.48.08c49.12,2.64,62.03,70.7,17.35,91.12-1.86.85-7.61,3.79-8.26.39-.64-5.91,1.32-14.6-1.24-19.96-.5-1.05-1.41-1.8-1.75-2.87,11.12-.63,19.49-6.37,21.15-17.8.81-5.54.54-10.84-2.4-15.73-.38-.63-1.89-2.14-1.99-2.51-.16-.57.73-3.17.81-4.15.15-1.73-.39-7.28-1.42-8.58-1.42-1.8-11.61,3.49-13.31,4.78-7.67-2.14-15.92-2.09-23.6-.01-4.09-2.28-8.28-5.31-13.23-4.91-.72,2.06-1.48,4.47-1.55,6.66-.05,1.56,1.03,5.61.86,6.22-.08.3-2.47,3.35-2.99,4.49-2.4,5.22-2.16,11.69-.62,17.15,2.66,9.43,10.39,13.45,19.63,14.41.26.03,1.02-.2.75.44-.2.48-1.34,1.53-1.75,2.43-.39.85-.91,3.57-1.23,3.84-1.03.87-5.34,1.2-6.72,1.05-6.06-.67-6.71-7.13-11.29-9.31-1.02-.48-5.08-1.49-5.22.2-.05.57,3.92,3.54,4.71,4.49,2.74,3.31,2.4,6.77,6.72,9.1,3.58,1.94,7.94,1.88,11.8.89-.42,2.84.56,7.38,0,10Z"/>
      <path d="M26.21,77.94c-.12-.11-.14-.36-.24-.51l.34-.58,1.61.42c.18,1.16-1.01,1.28-1.71.67Z"/>
      <path d="M33.59,78.31l.05-1.14c1.15-.79,2.55.08,1.25,1.1l-1.29.05Z"/>
      <path d="M30.2,77.45c.52-.17,1.79-.03,1.6.7l-.79.7-.41-.07-.89-.63.49-.7Z"/>
      <path d="M22.85,74.73c.4-.4,1.99.42,1.65,1.2-.6,1.38-2.28-.57-1.65-1.2Z"/>
    </g>
  </g>
</svg>