<?xml version="1.0" encoding="UTF-8"?>
<svg id="Layer_2" data-name="Layer 2" xmlns="http://www.w3.org/2000/svg" viewBox="0 0 636.52 547.24">
  <g id="Layer_1-2" data-name="Layer 1">
    <path d="M90,273.14c.39-81.23,36.29-157.45,97.99-209.51,155.44-131.18,397.34-48.7,441.53,148.5,53.86,240.39-213.78,425.82-418.04,288.04-5.37-3.62-41.02-30.84-40.4-34.39l42.43-41.67c18.42,16.75,38.45,31.4,61.14,41.89,116.42,53.86,255.34-8.79,291.85-130.86,47.19-157.77-93.19-306.72-253.51-268.51-93.97,22.4-162.76,109.6-161.99,206.51h90l-120.51,122.01L0,273.14h90Z"/>
    <path d="M379,152.14c.89,5.55-.98,11.21-1.05,16.45-.35,29.58-.08,59.47,0,89.01.02,7.65,1.5,15.07.56,22.6l105.05,62.91.28,2.3-19.86,34.73-2.29-.19-128.7-75.81v-152h46Z"/>
  </g>
</svg>