<?xml version="1.0" encoding="UTF-8"?>
<svg id="Layer_2" data-name="Layer 2" xmlns="http://www.w3.org/2000/svg" viewBox="0 0 189.26 189.28">
  <defs>
    <style>
      .cls-1 {
        fill: #090909;
      }

      .cls-2 {
        fill: #0c0d0d;
      }
    </style>
  </defs>
  <g id="Layer_1-2" data-name="Layer 1">
    <g>
      <circle class="cls-2" cx="144.62" cy="44.64" r="11.29"/>
      <g>
        <path class="cls-2" d="M52.92,1.44c22.59-1.93,57.99-1.8,80.74-.34,32.82,2.1,52.1,20.5,54.45,53.55,1.52,21.39,2.48,79.8-3.48,98.5-4.7,14.74-16.76,26.8-31.5,31.5-18.69,5.96-77.11,5-98.5,3.48-33.01-2.34-51.45-21.58-53.55-54.45C-.36,111.21-.36,78.08,1.08,55.6,3.13,23.54,20.64,4.21,52.92,1.44ZM52.91,18.44c-22.75,2.32-33.18,14.72-34.83,37.17-1.57,21.39-1.68,57.72.05,79.02,1.92,23.48,14.15,34.84,37.45,36.55,21.39,1.57,57.72,1.68,79.02-.05,23.48-1.92,34.84-14.15,36.55-37.45,1.57-21.39,1.68-57.72-.05-79.02-1.86-22.84-13.66-34.64-36.5-36.5-21.12-1.72-60.77-1.85-81.69.28Z"/>
        <path class="cls-1" d="M142.77,94.64c0,26.59-21.56,48.15-48.15,48.15s-48.15-21.56-48.15-48.15,21.56-48.15,48.15-48.15,48.15,21.56,48.15,48.15ZM126,94.64c0-17.33-14.05-31.38-31.38-31.38s-31.38,14.05-31.38,31.38,14.05,31.38,31.38,31.38,31.38-14.05,31.38-31.38Z"/>
      </g>
    </g>
  </g>
</svg>