<?xml version="1.0" encoding="UTF-8"?>
<svg id="Layer_2" xmlns="http://www.w3.org/2000/svg" version="1.1" viewBox="0 0 128.6 86.8">
  <!-- Generator: Adobe Illustrator 29.7.1, SVG Export Plug-In . SVG Version: 2.1.1 Build 8)  -->
  <defs>
    <style>
      .st0 {
        fill: #fff;
      }
    </style>
  </defs>
  <path class="st0" d="M37,45.2l26.9,12.8,28.5-12.6,35,28c1.8,2.9,1.5,10.5-1.5,12.6l-121.9.7c-4.2-1.2-4.8-10.2-2.8-13.4l35.7-28.2h0Z"/>
  <path class="st0" d="M5,.2l117.7-.2c5.8-.2,7.3,10.4,4.6,13.4-.4.4-7.5,4.2-9,5-17.3,9.8-36.8,17.8-54.4,27.3L1.3,13.4C-1.2,10.7-.2.6,5,.2Z"/>
  <polygon class="st0" points="128.3 63.9 99.3 40 128.3 25.9 128.3 63.9"/>
  <path class="st0" d="M.3,25.9l28,14.5c.1,1.4-1.1,2.2-2,3-7.6,7.2-18,13.6-26,20.5V25.9h0Z"/>
</svg>