<?xml version="1.0" encoding="UTF-8"?>
<svg id="Layer_2" xmlns="http://www.w3.org/2000/svg" version="1.1" viewBox="0 0 229.3 250.6">
  <!-- Generator: Adobe Illustrator 29.7.1, SVG Export Plug-In . SVG Version: 2.1.1 Build 8)  -->
  <defs>
    <style>
      .st0 {
        fill: #fff;
      }
    </style>
  </defs>
  <g id="Layer_1-2">
    <path class="st0" d="M49.3.6c18.4-2.3,25.5,1,30.8,18.7,2.9,9.7,5.4,22.8,7.2,32.8,2.2,12.7,6.3,19.4-6.7,26.7-11.4,6.5-22.7,3.6-17.1,21,9.2,28.9,38,61.4,63.3,77.7,22.4,14.4,17.8-2,30.2-13.3,8.1-7.3,16.9-2,25.8,1.3,10.4,3.9,30.2,11.9,39.1,17.9,12.8,8.7,6.4,26.4.2,37.9-20.4,37.8-64.7,34.4-97.4,15.4C76.9,209.2,8.9,129.1.8,73.6-4.1,40,13.2,5.2,49.3.6Z"/>
  </g>
</svg>