<?xml version="1.0" encoding="UTF-8"?>
<svg id="Layer_2" data-name="Layer 2" xmlns="http://www.w3.org/2000/svg" viewBox="0 0 1427.74 1855.34">
  <g id="Layer_1-2" data-name="Layer 1">
    <g>
      <path d="M145.78,0l79.08,33.2,1132.83,743.51c33.17,25.73,55.93,52.99,70.05,92.98v36.24c-29.35,79.06-101.75,111.46-166.06,156.53,138.7,293.5-12.03,663.67-322.58,764.14-39.33,12.73-80.24,17.5-119.75,28.75h-115.88c-28.95-11.19-61.72-11.25-92.58-19.69-117.2-32.05-207.63-102.75-288.69-189.76-115.52,82.97-295.99,156.78-314.28-54.83-19.35-223.8,3.23-494.77.38-725.1-.15-12.26,4.64-32.22-7.37-39.76V108.71C19.39,53.6,38.79,20.63,95.08,0h50.7ZM1223.58,1301.65c0-256.65-207.92-464.7-464.4-464.7s-464.4,208.05-464.4,464.7,207.92,464.7,464.4,464.7,464.4-208.05,464.4-464.7Z"/>
      <path d="M799.15,1266.83c2.03,3.32,12.71,4.32,16.61,8.63,6.17,6.82,10.14,20.55,15.9,22,46.46,11.69,175.41-28.02,189.06,34.09,23.44,106.68-134.3,53.71-189.02,67.07-5.49,1.34-13.25,21.19-23.04,29.27-69.26,57.16-170.09,1.93-166.17-88.19,2.48-57.08,41.06-62.03,46.33-89.69,12.34-64.73-10.01-163.33.59-231.33,9.7-62.21,93.7-63.12,106.54,1.25,8.93,44.79-7.81,228.86,3.2,246.89Z"/>
    </g>
  </g>
</svg>