<?xml version="1.0" encoding="UTF-8"?>
<svg id="Layer_2" data-name="Layer 2" xmlns="http://www.w3.org/2000/svg" viewBox="0 0 119.16 119.67">
  <g id="Layer_1-2" data-name="Layer 1">
    <g>
      <path d="M103.18,18.92c19.2,20.64,21.39,51.77,4.96,74.82-17.47,24.49-50.27,31.98-76.9,17.79L0,119.67l8.28-30.28c-1.13-3.21-2.95-6.21-4.15-9.47-9.66-26.23.33-55.51,23.61-70.49,24.21-15.58,55.93-11.49,75.45,9.48ZM14.34,105.57l18.36-4.83c26.61,16.9,62.14,5.52,73.23-24.04C120.67,37.42,82.65-1.13,43.15,12.94,12.79,23.75.95,60.85,19.2,87.47l-4.86,18.1Z"/>
      <path d="M39.34,30.03c2.07-.15,4.15.48,5.51,2.13l4.94,13.05c.97,3.45-5.3,6.6-5.3,9.42,0,.84,1.88,3.76,2.44,4.63,3.77,5.83,9.47,11.06,15.65,14.26,1.46.75,2.92,1.68,4.65,1.4,1.52-.24,4.91-5.1,6.21-6.43,1.63-1.68,2.19-1.15,4.23-.32,2.83,1.15,8.9,4.37,11.42,6.08,1.41.96,1.26,1.86,1.13,3.48-.51,6.47-5.77,10.64-11.85,11.73-8.22,1.48-22.68-6-28.99-11.24-7.46-6.18-19.57-21.33-20.41-31.13-.56-6.44,2.92-16.53,10.4-17.07Z"/>
    </g>
  </g>
</svg>